Another Fine Release Brought to you from - IMAGiNE 


***************************************************************************************** 
Yogi Bear 2010 TS V2 XViD - IMAGiNE
*****************************************************************************************

Ripper ...........:IMAGiNE IMDB Rating.......:3.7/10 
Video Codec.......:XVID Release Date......:13/02/11
Audio Codec.......:AC-3 Theatre Date......:17/12/10
Audio Bitrate.....:224 Runtime...........:1h 12mn
Subtitles.........:NIL Language..........:ENGLISH
Resolution........:720 x 404 IMDb URL..........:http://www.imdb.com/title/tt1302067/
DETAILS:

Video
ID : 0
Format : MPEG-4 Visual
Format profile : Advanced Simple@L5
Format settings, BVOP : Yes
Format settings, QPel : No
Format settings, GMC : No warppoints
Format settings, Matrix : Default (MPEG)
Muxing mode : Packed bitstream
Codec ID : XVID
Codec ID/Hint : XviD
Duration : 1h 12mn
Bit rate : 2 586 Kbps
Width : 720 pixels
Height : 404 pixels
Display aspect ratio : 16:9
Frame rate : 25.000 fps
Color space : YUV
Chroma subsampling : 4:2:0
Bit depth : 8 bits
Scan type : Progressive
Bits/(Pixel*Frame) : 0.356
Stream size : 1.32 GiB (92%)
Writing library : XviD 1.2.1 (UTC 2008-12-04)

Audio
ID : 1
Format : AC-3
Format/Info : Audio Coding 3
Mode extension : CM (complete main)
Codec ID : 2000
Duration : 1h 12mn
Bit rate mode : Constant
Bit rate : 224 Kbps
Channel(s) : 2 channels
Channel positions : Front: L R
Sampling rate : 48.0 KHz
Bit depth : 16 bits
Stream size : 117 MiB (8%)
Alignment : Aligned on interleaves
Interleave, duration : 40 ms (1.00 video frame)
Interleave, preload duration : 512 ms






SOURCES:

VIDEO: SERENiTY... Thanks
AUDIO: Thanks matey...

NOTES:

IMAGiNE bringing you another release..........Yogi Bear 2010....

Here we are with our V2 of Yogi for you all.Now the audio is great new line.
Now for the great new video we just made a script containing white balance, rgb eq,
sharpness, chroma, brightness, contrast ect.With the audio it was just
a case of muxing the audio back to our encode...

Enjoy

SCREENSHOTS:
  
http://img842.imageshack.us/img842/6316/59d3f2a5bc9a.jpg
  
http://img4.imageshack.us/img4/8455/9315c18f6d64.jpg
  
http://img205.imageshack.us/img205/1869/858897c2be10.jpg
  
http://img651.imageshack.us/img651/2937/18a53479b816.jpg
  
http://img714.imageshack.us/img714/4219/fca2fbb677d8.jpg
  
http://img132.imageshack.us/img132/699/176d4227c988.jpg